<svg width="479" height="43" viewBox="0 0 479 43" fill="none" xmlns="http://www.w3.org/2000/svg">
<path d="M54.5617 37H52.9617V10.6H41.7617V9H65.7617V10.6H54.5617V37ZM89.3883 37H68.9883V9H88.9883V10.6H70.5883V22.2H87.3883V23.8H70.5883V35.4H89.3883V37ZM115.802 37.8C114.602 37.8 113.629 37.4 112.882 36.6C112.136 35.7733 111.509 34.7467 111.002 33.52C110.522 32.2667 110.096 30.9733 109.722 29.64C109.349 28.3067 108.936 27.0667 108.482 25.92C108.056 24.7733 107.522 23.84 106.882 23.12C106.242 22.3733 105.402 22 104.362 22C103.909 22 103.229 22.2 102.322 22.6C101.442 22.9733 100.522 23.64 99.5623 24.6L95.0023 29.4V37H93.4023V9H95.0023V27.08L112.842 8.44L113.962 9.56L103.522 20.48C103.816 20.4267 104.096 20.4 104.362 20.4C105.802 20.4 106.962 20.8667 107.842 21.8C108.722 22.7333 109.429 23.8933 109.962 25.28C110.496 26.6667 110.976 28.08 111.402 29.52C112.282 32.8267 113.216 34.88 114.202 35.68C114.629 36.0267 115.162 36.2 115.802 36.2V37.8ZM122.073 37H120.473V9H122.073V37ZM146.849 37H126.449V9H128.049V35.4H146.849V37ZM175.179 37H173.459L167.779 23.76H156.819L151.139 37H149.379L161.419 9H163.139L175.179 37ZM167.099 22.16L162.299 11.04L157.499 22.16H167.099ZM223.118 37H221.638L211.958 11.28L202.278 37H200.758L190.238 9H191.958L201.518 34.44L211.078 9H212.798L222.358 34.44L231.958 9H233.638L223.118 37ZM258.021 37H237.621V9H257.621V10.6H239.221V22.2H256.021V23.8H239.221V35.4H258.021V37ZM274.235 37H262.035V9H271.635C275.182 9 277.928 9.64 279.875 10.92C281.848 12.2 282.835 14.04 282.835 16.44C282.835 17.9333 282.435 19.2133 281.635 20.28C280.862 21.32 279.782 22.1333 278.395 22.72C282.422 23.8133 284.435 26.12 284.435 29.64C284.435 32.04 283.528 33.8667 281.715 35.12C279.902 36.3733 277.408 37 274.235 37ZM271.635 22.2C278.008 22.2 281.208 20.28 281.235 16.44C281.235 12.6 278.035 10.6533 271.635 10.6H263.635V22.2H271.635ZM274.235 35.4C279.888 35.4 282.755 33.48 282.835 29.64C282.835 25.7467 279.742 23.8 273.555 23.8H263.635V35.4H274.235ZM301.526 37H299.926V9H320.166V10.6H301.526V22.2H318.166V23.8H301.526V37ZM343.851 37H342.131L336.451 23.76H325.491L319.811 37H318.051L330.091 9H331.811L343.851 37ZM335.771 22.16L330.971 11.04L326.171 22.16H335.771ZM356.623 37C353.903 37 351.623 36.3467 349.783 35.04C347.943 33.7067 346.556 31.9733 345.623 29.84C344.689 27.7067 344.223 25.4267 344.223 23C344.223 20.5467 344.689 18.2667 345.623 16.16C346.556 14.0267 347.943 12.3067 349.783 11C351.623 9.66666 353.903 9 356.623 9C358.596 9 360.356 9.37333 361.903 10.12C363.449 10.84 364.756 11.8533 365.823 13.16L364.583 14.16C362.663 11.7867 360.009 10.6 356.623 10.6C354.383 10.6 352.449 11.1467 350.823 12.24C349.223 13.3067 347.983 14.7733 347.103 16.64C346.249 18.5067 345.823 20.6267 345.823 23C345.823 25.3733 346.249 27.4933 347.103 29.36C347.983 31.2267 349.223 32.7067 350.823 33.8C352.449 34.8667 354.383 35.4 356.623 35.4C360.009 35.4 362.663 34.2133 364.583 31.84L365.823 32.84C364.756 34.12 363.449 35.1333 361.903 35.88C360.356 36.6267 358.596 37 356.623 37ZM380.226 37H378.626V10.6H367.426V9H391.426V10.6H380.226V37ZM403.146 37C400.426 37 398.146 36.3467 396.306 35.04C394.466 33.7333 393.079 32.0133 392.146 29.88C391.213 27.7467 390.746 25.4533 390.746 23C390.746 20.5467 391.213 18.2667 392.146 16.16C393.079 14.0267 394.466 12.3067 396.306 11C398.146 9.66666 400.426 9 403.146 9C405.893 9 408.173 9.66666 409.986 11C411.826 12.3067 413.213 14.0267 414.146 16.16C415.079 18.2667 415.546 20.5467 415.546 23C415.546 25.4267 415.079 27.7067 414.146 29.84C413.213 31.9733 411.826 33.7067 409.986 35.04C408.173 36.3467 405.893 37 403.146 37ZM403.146 35.4C405.413 35.4 407.346 34.8667 408.946 33.8C410.546 32.7067 411.773 31.2267 412.626 29.36C413.506 27.4933 413.946 25.3733 413.946 23C413.946 20.6267 413.506 18.5067 412.626 16.64C411.773 14.7733 410.546 13.3067 408.946 12.24C407.346 11.1467 405.413 10.6 403.146 10.6C400.906 10.6 398.973 11.1467 397.346 12.24C395.746 13.3067 394.506 14.7733 393.626 16.64C392.773 18.5067 392.346 20.6267 392.346 23C392.346 25.3733 392.773 27.4933 393.626 29.36C394.506 31.2267 395.746 32.7067 397.346 33.8C398.973 34.8667 400.906 35.4 403.146 35.4ZM440.018 37.04C438.871 37.04 437.951 36.7467 437.258 36.16C436.565 35.5467 435.991 34.7733 435.538 33.84C435.085 32.9067 434.658 31.88 434.258 30.76C433.885 29.64 433.431 28.5467 432.898 27.48C432.365 26.4133 431.658 25.5333 430.778 24.84C429.925 24.1467 428.765 23.8 427.298 23.8H421.018V37H419.418V9H429.018C431.711 9 433.831 9.57333 435.378 10.72C436.951 11.84 437.738 13.7467 437.738 16.44C437.738 18.7333 437.178 20.4667 436.058 21.64C434.965 22.7867 433.551 23.4667 431.818 23.68C432.778 24.4267 433.511 25.24 434.018 26.12C434.525 26.9733 434.951 27.92 435.298 28.96L435.658 29.92C436.005 30.96 436.365 31.8933 436.738 32.72C437.138 33.5467 437.578 34.2133 438.058 34.72C438.565 35.2 439.218 35.44 440.018 35.44V37.04ZM429.218 22.2C431.485 22.2 433.205 21.7733 434.378 20.92C435.551 20.0667 436.138 18.5733 436.138 16.44C436.138 14.28 435.525 12.7733 434.298 11.92C433.098 11.04 431.338 10.6 429.018 10.6H421.018V22.2H429.218ZM454 37H452.4V24.88L440.16 9H442.2L453.2 23.28L464.24 9H466.24L454 24.88V37Z" fill="#FFFCFF"/>
<path d="M22.1667 28.6666V37.625H15.8333V32.25H14.25C12.9902 32.25 11.782 31.6837 10.8912 30.6757C10.0004 29.6677 9.5 28.3005 9.5 26.875V21.5C9.5 21.0248 9.66682 20.5691 9.96375 20.2331C10.2607 19.8971 10.6634 19.7083 11.0833 19.7083C11.5033 19.7083 11.906 19.8971 12.2029 20.2331C12.4999 20.5691 12.6667 21.0248 12.6667 21.5V26.875C12.6667 27.8783 13.3792 28.6666 14.25 28.6666H15.8333V10.75C15.8333 9.7996 16.167 8.88817 16.7608 8.21616C17.3547 7.54415 18.1601 7.16663 19 7.16663C19.8399 7.16663 20.6453 7.54415 21.2392 8.21616C21.833 8.88817 22.1667 9.7996 22.1667 10.75V25.0833H23.75C24.1699 25.0833 24.5727 24.8945 24.8696 24.5585C25.1665 24.2225 25.3333 23.7668 25.3333 23.2916V19.7083C25.3333 19.2331 25.5001 18.7774 25.7971 18.4414C26.094 18.1054 26.4967 17.9166 26.9167 17.9166C27.3366 17.9166 27.7393 18.1054 28.0363 18.4414C28.3332 18.7774 28.5 19.2331 28.5 19.7083V23.2916C28.5 24.7172 27.9996 26.0843 27.1088 27.0923C26.218 28.1003 25.0098 28.6666 23.75 28.6666H22.1667Z" fill="#FFFCFF"/>
</svg>
