<svg width="700" height="55" viewBox="0 0 700 55" fill="none" xmlns="http://www.w3.org/2000/svg">
<path d="M79.3426 50H76.9426V10.4H60.1426V8H96.1426V10.4H79.3426V50ZM131.582 50H100.982V8H130.982V10.4H103.382V27.8H128.582V30.2H103.382V47.6H131.582V50ZM171.204 51.2C169.404 51.2 167.944 50.6 166.824 49.4C165.704 48.16 164.764 46.62 164.004 44.78C163.284 42.9 162.644 40.96 162.084 38.96C161.524 36.96 160.904 35.1 160.224 33.38C159.584 31.66 158.784 30.26 157.824 29.18C156.864 28.06 155.604 27.5 154.044 27.5C153.364 27.5 152.344 27.8 150.984 28.4C149.664 28.96 148.284 29.96 146.844 31.4L140.004 38.6V50H137.604V8H140.004V35.12L166.764 7.16L168.444 8.84L152.784 25.22C153.224 25.14 153.644 25.1 154.044 25.1C156.204 25.1 157.944 25.8 159.264 27.2C160.584 28.6 161.644 30.34 162.444 32.42C163.244 34.5 163.964 36.62 164.604 38.78C165.924 43.74 167.324 46.82 168.804 48.02C169.444 48.54 170.244 48.8 171.204 48.8V51.2ZM180.609 50H178.209V8H180.609V50ZM217.774 50H187.174V8H189.574V47.6H217.774V50ZM260.268 50H257.688L249.168 30.14H232.728L224.208 50H221.568L239.628 8H242.208L260.268 50ZM248.148 27.74L240.948 11.06L233.748 27.74H248.148ZM332.177 50H329.957L315.437 11.42L300.917 50H298.637L282.857 8H285.437L299.777 46.16L314.117 8H316.697L331.037 46.16L345.437 8H347.957L332.177 50ZM384.532 50H353.932V8H383.932V10.4H356.332V27.8H381.532V30.2H356.332V47.6H384.532V50ZM408.853 50H390.553V8H404.953C410.273 8 414.393 8.96 417.313 10.88C420.273 12.8 421.753 15.56 421.753 19.16C421.753 21.4 421.153 23.32 419.953 24.92C418.793 26.48 417.173 27.7 415.093 28.58C421.133 30.22 424.153 33.68 424.153 38.96C424.153 42.56 422.793 45.3 420.073 47.18C417.353 49.06 413.613 50 408.853 50ZM404.953 27.8C414.513 27.8 419.313 24.92 419.353 19.16C419.353 13.4 414.553 10.48 404.953 10.4H392.953V27.8H404.953ZM408.853 47.6C417.333 47.6 421.633 44.72 421.753 38.96C421.753 33.12 417.113 30.2 407.833 30.2H392.953V47.6H408.853ZM449.789 50H447.389V8H477.749V10.4H449.789V27.8H474.749V30.2H449.789V50ZM513.276 50H510.696L502.176 30.14H485.736L477.216 50H474.576L492.636 8H495.216L513.276 50ZM501.156 27.74L493.956 11.06L486.756 27.74H501.156ZM532.434 50C528.354 50 524.934 49.02 522.174 47.06C519.414 45.06 517.334 42.46 515.934 39.26C514.534 36.06 513.834 32.64 513.834 29C513.834 25.32 514.534 21.9 515.934 18.74C517.334 15.54 519.414 12.96 522.174 11C524.934 9 528.354 8 532.434 8C535.394 8 538.034 8.56 540.354 9.68C542.674 10.76 544.634 12.28 546.234 14.24L544.374 15.74C541.494 12.18 537.514 10.4 532.434 10.4C529.074 10.4 526.174 11.22 523.734 12.86C521.334 14.46 519.474 16.66 518.154 19.46C516.874 22.26 516.234 25.44 516.234 29C516.234 32.56 516.874 35.74 518.154 38.54C519.474 41.34 521.334 43.56 523.734 45.2C526.174 46.8 529.074 47.6 532.434 47.6C537.514 47.6 541.494 45.82 544.374 42.26L546.234 43.76C544.634 45.68 542.674 47.2 540.354 48.32C538.034 49.44 535.394 50 532.434 50ZM567.839 50H565.439V10.4H548.639V8H584.639V10.4H567.839V50ZM602.219 50C598.139 50 594.719 49.02 591.959 47.06C589.199 45.1 587.119 42.52 585.719 39.32C584.319 36.12 583.619 32.68 583.619 29C583.619 25.32 584.319 21.9 585.719 18.74C587.119 15.54 589.199 12.96 591.959 11C594.719 9 598.139 8 602.219 8C606.339 8 609.759 9 612.479 11C615.239 12.96 617.319 15.54 618.719 18.74C620.119 21.9 620.819 25.32 620.819 29C620.819 32.64 620.119 36.06 618.719 39.26C617.319 42.46 615.239 45.06 612.479 47.06C609.759 49.02 606.339 50 602.219 50ZM602.219 47.6C605.619 47.6 608.519 46.8 610.919 45.2C613.319 43.56 615.159 41.34 616.439 38.54C617.759 35.74 618.419 32.56 618.419 29C618.419 25.44 617.759 22.26 616.439 19.46C615.159 16.66 613.319 14.46 610.919 12.86C608.519 11.22 605.619 10.4 602.219 10.4C598.859 10.4 595.959 11.22 593.519 12.86C591.119 14.46 589.259 16.66 587.939 19.46C586.659 22.26 586.019 25.44 586.019 29C586.019 32.56 586.659 35.74 587.939 38.54C589.259 41.34 591.119 43.56 593.519 45.2C595.959 46.8 598.859 47.6 602.219 47.6ZM657.527 50.06C655.807 50.06 654.427 49.62 653.387 48.74C652.347 47.82 651.487 46.66 650.807 45.26C650.127 43.86 649.487 42.32 648.887 40.64C648.327 38.96 647.647 37.32 646.847 35.72C646.047 34.12 644.987 32.8 643.667 31.76C642.387 30.72 640.647 30.2 638.447 30.2H629.027V50H626.627V8H641.027C645.067 8 648.247 8.86 650.567 10.58C652.927 12.26 654.107 15.12 654.107 19.16C654.107 22.6 653.267 25.2 651.587 26.96C649.947 28.68 647.827 29.7 645.227 30.02C646.667 31.14 647.767 32.36 648.527 33.68C649.287 34.96 649.927 36.38 650.447 37.94L650.987 39.38C651.507 40.94 652.047 42.34 652.607 43.58C653.207 44.82 653.867 45.82 654.587 46.58C655.347 47.3 656.327 47.66 657.527 47.66V50.06ZM641.327 27.8C644.727 27.8 647.307 27.16 649.067 25.88C650.827 24.6 651.707 22.36 651.707 19.16C651.707 15.92 650.787 13.66 648.947 12.38C647.147 11.06 644.507 10.4 641.027 10.4H629.027V27.8H641.327ZM678.5 50H676.1V31.82L657.74 8H660.8L677.3 29.42L693.86 8H696.86L678.5 31.82V50Z" fill="black"/>
<path d="M28.5833 36.6665V48.1248H20.4167V41.2498H18.375C16.7505 41.2498 15.1926 40.5255 14.044 39.2362C12.8953 37.9469 12.25 36.1982 12.25 34.3748V27.4998C12.25 26.8921 12.4651 26.3092 12.848 25.8794C13.2309 25.4496 13.7502 25.2082 14.2917 25.2082C14.8332 25.2082 15.3525 25.4496 15.7353 25.8794C16.1182 26.3092 16.3333 26.8921 16.3333 27.4998V34.3748C16.3333 35.6582 17.2521 36.6665 18.375 36.6665H20.4167V13.7498C20.4167 12.5343 20.8469 11.3685 21.6126 10.5089C22.3784 9.64939 23.417 9.1665 24.5 9.1665C25.583 9.1665 26.6216 9.64939 27.3874 10.5089C28.1531 11.3685 28.5833 12.5343 28.5833 13.7498V32.0832H30.625C31.1665 32.0832 31.6858 31.8417 32.0687 31.412C32.4516 30.9822 32.6667 30.3993 32.6667 29.7915V25.2082C32.6667 24.6004 32.8818 24.0175 33.2647 23.5877C33.6475 23.1579 34.1669 22.9165 34.7083 22.9165C35.2498 22.9165 35.7691 23.1579 36.152 23.5877C36.5349 24.0175 36.75 24.6004 36.75 25.2082V29.7915C36.75 31.6149 36.1047 33.3636 34.956 34.6529C33.8074 35.9422 32.2495 36.6665 30.625 36.6665H28.5833Z" fill="black"/>
</svg>
